 <svg version="1.1" id="Layer_1" xmlns="http://www.w3.org/2000/svg" xmlns:xlink="http://www.w3.org/1999/xlink" x="0px" y="0px"
	 width="100%" viewBox="0 0 296 271" enable-background="new 0 0 296 271" xml:space="preserve">
<path fill="#FCFCFC" opacity="1.000000" stroke="none" 
	d="
M297.000000,91.000000 
	C297.000000,150.307388 296.968445,209.114853 297.084595,267.922028 
	C297.091034,271.173279 296.666412,272.109894 293.081207,272.104950 
	C196.957123,271.973114 100.832794,271.980194 4.708638,272.085785 
	C1.487499,272.089325 0.925771,271.237061 0.928805,268.211792 
	C1.016861,180.417267 1.014543,92.622620 0.936649,4.828083 
	C0.934050,1.898641 1.348722,0.903459 4.668777,0.907409 
	C100.959511,1.021945 197.250427,1.019994 293.541168,0.909657 
	C296.634125,0.906113 297.087891,1.667029 297.075439,4.538489 
	C296.951141,33.191895 297.000000,61.846054 297.000000,91.000000 
z"/>
<path fill="#050606" opacity="1.000000" stroke="none" 
	d="
M217.285202,257.575165 
	C216.304703,261.108429 214.266205,262.082672 211.163834,262.079712 
	C149.844223,262.020996 88.524467,262.077911 27.204947,261.982391 
	C16.446344,261.965637 9.017196,253.763809 9.008822,242.366989 
	C8.974669,195.877350 8.994337,149.387680 8.994261,102.898010 
	C8.994226,81.736053 8.963642,60.574036 9.004292,39.412151 
	C9.036164,22.819801 19.919077,11.980179 36.611553,11.974736 
	C111.594864,11.950291 186.578201,11.948434 261.561523,11.976762 
	C278.171417,11.983037 288.990265,22.888109 288.995972,39.584023 
	C289.018982,106.902374 289.012848,174.220749 288.999054,241.539108 
	C288.996368,254.597916 281.627869,261.989990 268.618896,262.030090 
	C257.954712,262.062958 247.290283,262.016785 236.626099,262.049591 
	C234.015793,262.057617 231.518600,262.031464 230.534119,258.452393 
	C229.877823,252.836914 233.787323,252.646378 237.237366,252.517044 
	C245.892166,252.192642 254.558746,252.432968 263.220459,252.389847 
	C265.551514,252.378250 267.890717,252.493927 270.208435,252.179932 
	C275.610901,251.448074 278.491943,248.519501 279.194000,243.074188 
	C279.450256,241.086472 279.389404,239.082932 279.389526,237.084641 
	C279.393280,181.780731 279.392487,126.476830 279.391632,71.172928 
	C279.391632,70.673195 279.394745,70.173401 279.388062,69.673737 
	C279.298492,62.969841 279.076752,62.747692 272.290375,62.619282 
	C271.457489,62.603519 270.624695,62.606342 269.310364,62.503204 
	C262.340668,62.841682 255.851669,62.635780 249.365540,62.638199 
	C196.294708,62.657978 143.223846,62.673206 90.153076,62.611210 
	C85.958717,62.606308 81.190437,63.473007 79.052673,57.579197 
	C79.297043,53.391056 81.765358,52.037807 85.010750,51.563488 
	C86.495804,51.346447 87.999184,51.360641 89.497528,51.360813 
	C148.593338,51.367504 207.689148,51.310650 267.232910,51.409264 
	C281.272247,51.689457 279.684387,53.026226 279.498383,39.656307 
	C279.337219,28.070034 273.102295,22.239519 260.438080,21.482895 
	C198.876785,21.716175 137.751755,21.548542 76.626831,21.604340 
	C63.802109,21.616047 50.975681,21.465515 38.153107,21.653025 
	C23.534031,21.866808 14.580173,34.607769 18.839279,48.747776 
	C19.724260,51.685863 22.025677,51.320965 24.076456,51.343239 
	C34.735134,51.458984 45.395088,51.381184 56.054577,51.398216 
	C57.886230,51.401142 59.719326,51.370827 61.546425,51.549194 
	C64.452538,51.832897 66.684433,52.947468 67.244568,56.636284 
	C66.958298,61.903370 63.513309,62.522068 59.818336,62.575932 
	C48.998974,62.733643 38.178013,62.612408 27.357742,62.641781 
	C25.859737,62.645847 24.360046,62.701313 22.864378,62.681091 
	C19.907223,62.641117 18.668016,64.131996 18.675209,66.977455 
	C18.679832,68.807671 18.643003,70.639198 18.641859,72.470207 
	C18.606812,128.569656 18.708660,184.669144 18.559042,241.250458 
	C20.117105,250.255600 22.739931,252.356750 32.426262,252.366684 
	C80.070061,252.415619 127.713898,252.379639 175.357727,252.391937 
	C186.852081,252.394897 198.347549,252.276535 209.840195,252.467133 
	C213.170883,252.522369 216.732376,252.639252 217.285202,257.575165 
z"/>
<path fill="#DBD8DC" opacity="1.000000" stroke="none" 
	d="
M217.549591,258.008545 
	C216.174393,253.877472 213.044907,253.907303 209.717972,253.909363 
	C151.133850,253.945572 92.549698,253.934937 33.965553,253.934341 
	C32.467663,253.934326 30.969654,253.945724 29.471905,253.930954 
	C21.516026,253.852432 18.139118,250.780975 17.254902,242.347382 
	C20.093327,239.642365 23.398670,240.429855 26.476866,240.427689 
	C94.930061,240.379547 163.383286,240.387924 231.836517,240.400543 
	C236.176819,240.401352 240.506104,240.361923 244.736893,239.251221 
	C255.845001,236.335068 263.064758,229.457321 265.865448,218.223770 
	C267.079010,213.356079 267.417328,208.381470 267.413116,203.355896 
	C267.376007,159.052872 267.383362,114.749786 267.408234,70.446739 
	C267.409790,67.639603 267.029755,64.764168 268.644592,61.729473 
	C280.900116,60.250992 280.900146,60.250992 280.900116,71.880936 
	C280.900055,127.846504 280.902130,183.812073 280.897919,239.777634 
	C280.897095,250.490173 277.503296,253.928497 266.956024,253.934967 
	C256.795593,253.941223 246.635101,253.962753 236.474838,253.922363 
	C233.812088,253.911789 231.403839,254.126801 230.524689,257.716309 
	C226.230789,258.062622 222.117233,258.030884 217.549591,258.008545 
z"/>
<path fill="#EFEDF0" opacity="1.000000" stroke="none" 
	d="
M268.517090,61.257828 
	C268.980347,110.367889 269.173798,159.363449 268.912811,208.356598 
	C268.800171,229.498032 255.629974,242.035431 235.235336,242.020233 
	C162.909973,241.966324 90.584564,241.978287 17.814419,241.967438 
	C17.281755,240.313492 17.117374,238.657394 17.116995,237.001282 
	C17.103987,180.217102 17.170506,123.432709 16.989683,66.649101 
	C16.974632,61.922504 18.356363,60.880978 22.807463,60.988281 
	C35.122963,61.285168 47.450317,61.086868 59.772984,61.092815 
	C62.475334,61.094116 65.256386,61.289330 66.433350,57.518761 
	C70.657341,54.400539 74.911446,55.233246 79.552048,56.729084 
	C80.869743,61.160763 84.034996,61.113636 87.340668,61.111382 
	C132.771118,61.080414 178.201584,61.086830 223.632050,61.093559 
	C238.442368,61.095757 253.252701,61.125313 268.517090,61.257828 
z"/>
<path fill="#96B8C2" opacity="1.000000" stroke="none" 
	d="
M80.035301,56.663429 
	C75.763107,57.040569 71.608955,57.055069 67.033508,57.116310 
	C65.958008,53.683773 63.668896,52.866444 60.414276,52.893993 
	C47.435459,53.003883 34.453213,52.814548 21.476662,53.018093 
	C17.944607,53.073498 16.749561,52.033875 17.067396,48.538841 
	C17.487797,43.915989 16.645239,39.232300 17.643681,34.613110 
	C19.475069,26.140360 25.791172,20.640940 34.383923,20.108585 
	C34.881592,20.077753 35.382000,20.084721 35.881134,20.084862 
	C110.597382,20.106195 185.313629,20.128523 260.487976,20.235901 
	C263.894897,21.848188 265.908173,24.308962 267.117859,27.277142 
	C270.380646,35.283070 271.342712,43.567284 269.242859,52.402534 
	C266.955017,52.786480 264.961609,52.927353 262.968170,52.927757 
	C204.492996,52.939632 146.017838,52.936852 87.542664,52.939625 
	C84.576347,52.939766 81.336769,52.368103 80.035301,56.663429 
z"/>
<path fill="#809DA8" opacity="1.000000" stroke="none" 
	d="
M269.405029,52.808918 
	C268.989990,44.285912 269.411011,35.838093 265.982544,27.796022 
	C264.832367,25.098061 262.416321,23.446285 261.001678,20.647869 
	C271.909180,19.626072 279.921967,26.437859 280.839111,37.286148 
	C280.978638,38.936611 280.900208,40.606514 280.901978,42.267445 
	C280.913422,53.060215 280.911560,53.060219 269.405029,52.808918 
z"/>
<path fill="#080708" opacity="1.000000" stroke="none" 
	d="
M41.895363,100.314850 
	C35.300335,92.861351 35.608948,84.305168 42.370155,79.081825 
	C48.978054,73.976906 57.714924,75.637840 62.467388,83.414154 
	C64.127991,86.131355 66.108932,85.791435 68.346298,85.792091 
	C113.326424,85.805267 158.306549,85.801933 203.286667,85.801941 
	C212.282700,85.801941 221.280045,85.716194 230.273911,85.855888 
	C232.860519,85.896065 234.403732,85.272804 235.842178,82.873291 
	C239.034637,77.547890 244.443390,75.381454 249.862015,76.545601 
	C255.664719,77.792282 259.284698,81.368568 260.663788,87.045708 
	C262.030975,92.673820 259.616974,98.212769 254.207108,101.514351 
	C252.225739,102.723587 251.454636,103.935654 251.467911,106.216248 
	C251.554199,121.042526 251.572647,135.870026 251.454773,150.695877 
	C251.434738,153.214691 252.366470,154.508636 254.448868,155.775085 
	C259.699127,158.968140 261.705811,163.882965 260.708618,169.886063 
	C259.815613,175.261856 255.123367,179.888748 249.599670,180.734177 
	C243.771713,181.626175 238.956482,179.468445 235.982803,174.437927 
	C234.459122,171.860352 232.780609,171.230164 230.026062,171.233582 
	C176.049988,171.300491 122.073799,171.296722 68.097702,171.243500 
	C65.417412,171.240860 63.617535,171.665756 62.079235,174.330978 
	C59.161621,179.385956 54.356552,181.586945 48.520763,180.753510 
	C42.991844,179.963913 38.380039,175.368607 37.284431,170.014496 
	C36.147823,164.460022 38.246387,158.947601 43.462204,155.887527 
	C46.132259,154.321030 46.540184,152.488663 46.525036,149.828156 
	C46.446320,136.001389 46.338108,122.171219 46.587116,108.348473 
	C46.655506,104.552216 45.829094,101.936699 41.895363,100.314850 
z"/>
<path fill="#090C0D" opacity="1.000000" stroke="none" 
	d="
M199.000000,199.997696 
	C213.653854,199.997849 227.807800,199.968674 241.961533,200.010864 
	C248.759430,200.031128 251.356796,202.558060 251.503067,209.293900 
	C251.600647,213.787170 251.680878,218.294601 251.438568,222.777847 
	C251.158615,227.957733 248.363297,230.764267 243.135254,230.785172 
	C217.825287,230.886444 192.514374,230.894333 167.204544,230.777466 
	C161.788483,230.752457 159.107147,227.703308 158.987442,222.201355 
	C158.893280,217.873993 158.929291,213.542526 158.976608,209.213638 
	C159.047409,202.738174 161.626984,200.062225 168.027725,200.018875 
	C178.184738,199.950073 188.342529,199.998734 199.000000,199.997696 
z"/>
<path fill="#171617" opacity="1.000000" stroke="none" 
	d="
M95.999924,229.780640 
	C81.671761,229.780624 67.843582,229.790085 54.015457,229.766769 
	C52.527340,229.764267 51.001835,229.741928 49.561134,229.423538 
	C47.757198,229.024872 46.720711,227.690048 46.631470,225.829224 
	C46.532944,223.774979 47.447956,222.204010 49.496269,221.701859 
	C50.925713,221.351395 52.451286,221.278473 53.934093,221.277206 
	C81.257187,221.253937 108.580307,221.260147 135.903427,221.260391 
	C136.569839,221.260391 137.237549,221.237030 137.902435,221.269730 
	C140.666779,221.405609 143.013611,222.352325 143.040466,225.500671 
	C143.067291,228.645447 140.800247,229.708221 137.984207,229.765991 
	C135.652695,229.813843 133.319504,229.779984 130.987045,229.780106 
	C119.491341,229.780670 107.995636,229.780518 95.999924,229.780640 
z"/>
<path fill="#080808" opacity="1.000000" stroke="none" 
	d="
M94.999924,209.188904 
	C80.668068,209.188812 66.836205,209.184998 53.004345,209.191681 
	C50.102150,209.193085 46.799259,209.381668 46.744007,205.350403 
	C46.685947,201.114120 50.019035,201.054657 53.180927,201.056549 
	C81.011284,201.073257 108.841667,201.073151 136.672028,201.054703 
	C139.660294,201.052719 142.835754,201.164337 142.942108,205.015503 
	C143.061996,209.356644 139.586746,209.195969 136.495529,209.193497 
	C122.830338,209.182541 109.165131,209.188843 94.999924,209.188904 
z"/>
<path fill="#050606" opacity="1.000000" stroke="none" 
	d="
M227.000488,33.999115 
	C237.138107,33.999611 246.776184,34.044586 256.413452,33.974812 
	C259.498352,33.952473 262.523224,34.365852 262.623260,38.033829 
	C262.725922,41.799183 259.691681,42.208981 256.606079,42.199539 
	C241.484894,42.153255 226.363464,42.167068 211.242172,42.190742 
	C208.271378,42.195393 205.101776,42.143299 205.092087,38.211746 
	C205.081711,34.012089 208.391373,33.953480 211.545654,33.986324 
	C216.530151,34.038231 221.515594,33.999493 227.000488,33.999115 
z"/>
<path fill="#CFAFE6" opacity="1.000000" stroke="none" 
	d="
M243.164001,134.999268 
	C243.164154,137.497314 242.731735,139.613113 243.237503,141.473907 
	C245.750122,150.718079 239.721680,156.267258 234.596588,162.248825 
	C233.556198,163.463074 232.135101,163.040115 230.860703,163.040619 
	C176.242401,163.061752 121.624092,163.048828 67.005852,163.103088 
	C64.760437,163.105316 63.279968,162.636368 62.311817,160.418030 
	C61.739864,159.107513 60.675167,157.546570 59.452206,157.067078 
	C54.434898,155.099945 54.741512,151.115219 54.785625,146.858231 
	C54.923664,133.538116 54.887070,120.215317 54.792038,106.894455 
	C54.773949,104.358971 55.037563,102.380669 57.770580,101.365654 
	C58.800011,100.983330 60.035526,100.126846 60.411354,99.181946 
	C62.721447,93.374001 67.560555,93.994629 72.382965,93.999268 
	C124.503433,94.049347 176.623978,94.046021 228.744446,93.993759 
	C232.029510,93.990463 235.092163,93.821716 236.355118,97.770401 
	C236.587585,98.497261 237.284302,99.357452 237.969543,99.613647 
	C244.156738,101.926903 243.223526,107.111031 243.180954,112.019569 
	C243.115997,119.512352 243.163956,127.006111 243.164001,134.999268 
z"/>
<path fill="#E2A5CF" opacity="1.000000" stroke="none" 
	d="
M47.492481,85.556572 
	C51.539715,83.584473 54.430481,84.593597 55.757561,88.464661 
	C56.764992,91.403320 55.302769,93.819580 52.447361,94.839851 
	C49.306362,95.962173 46.905289,94.647591 45.580200,91.600006 
	C44.567558,89.271011 45.556698,87.413177 47.492481,85.556572 
z"/>
<path fill="#E2A5CF" opacity="1.000000" stroke="none" 
	d="
M248.605133,95.057465 
	C244.635437,95.362587 242.361435,93.727058 242.062073,90.162109 
	C241.803436,87.082275 243.587845,85.086662 246.619888,84.612625 
	C249.450974,84.170013 251.515808,85.561485 252.432587,88.223885 
	C253.572083,91.533051 251.843750,93.587852 248.605133,95.057465 
z"/>
<path fill="#E0A4CE" opacity="1.000000" stroke="none" 
	d="
M53.047905,172.026367 
	C49.009930,173.387955 46.470459,171.989883 45.427315,168.436844 
	C44.554256,165.463135 46.142624,163.189178 48.892509,162.213760 
	C51.704086,161.216492 54.176014,162.240189 55.477139,165.014175 
	C56.784351,167.801147 55.833664,170.120651 53.047905,172.026367 
z"/>
<path fill="#E0A4CE" opacity="1.000000" stroke="none" 
	d="
M244.139130,162.990494 
	C248.391754,160.905075 251.352936,162.038925 252.551544,166.106415 
	C253.477203,169.247620 251.729660,171.502747 248.600800,172.420792 
	C246.290268,173.098755 244.341492,172.244186 243.011444,170.335205 
	C241.247559,167.803558 241.707764,165.387253 244.139130,162.990494 
z"/>
<path fill="#5CC9F1" opacity="1.000000" stroke="none" 
	d="
M229.988495,208.146667 
	C231.319229,208.146683 232.151978,208.146667 232.984726,208.146652 
	C243.793015,208.146393 243.726822,208.143219 243.197037,219.182999 
	C243.089478,221.424454 242.636871,222.429535 240.143265,222.421555 
	C216.826584,222.346924 193.509506,222.352585 170.192749,222.411270 
	C167.690659,222.417572 167.020950,221.311783 167.148483,219.072449 
	C167.261932,217.080353 167.371185,215.051926 167.128036,213.083282 
	C166.649826,209.211411 167.991638,207.999573 172.032104,208.046768 
	C191.182678,208.270462 210.337326,208.146652 229.988495,208.146667 
z"/>
<path fill="#0E0B0F" opacity="1.000000" stroke="none" 
	d="
M222.132080,114.126877 
	C218.889755,116.662537 215.428299,115.771439 212.196655,115.683586 
	C208.908890,115.594223 208.722961,117.324463 208.910446,119.727257 
	C209.077682,121.870338 208.033417,124.712509 212.025848,124.391350 
	C214.004974,124.232155 216.026108,124.292404 218.003723,124.493965 
	C220.431976,124.741455 222.114166,126.053787 222.006866,128.687820 
	C221.902435,131.251633 220.228622,132.519302 217.785751,132.744492 
	C216.465393,132.866196 215.091095,132.981125 213.801605,132.754684 
	C209.283905,131.961349 208.623444,134.244797 208.811081,138.088135 
	C208.943802,140.806091 209.896866,141.532822 212.367996,141.370667 
	C214.519592,141.229477 216.701096,141.244507 218.849091,141.428024 
	C221.254623,141.633545 222.996628,142.908966 223.074112,145.495102 
	C223.152283,148.104568 221.470291,149.597336 219.057541,149.690125 
	C214.242416,149.875290 209.406647,149.900528 204.595428,149.664856 
	C201.871613,149.531433 200.552139,147.566666 200.547058,144.868591 
	C200.526688,134.055389 200.516510,123.242073 200.548737,112.428940 
	C200.558197,109.258385 202.147339,107.409447 205.421295,107.369308 
	C209.745895,107.316292 214.083313,107.160934 218.393524,107.416176 
	C222.394348,107.653091 224.146851,109.746574 222.132080,114.126877 
z"/>
<path fill="#0C0A0D" opacity="1.000000" stroke="none" 
	d="
M89.585472,149.614929 
	C85.129105,149.950272 84.193863,147.430832 84.206604,143.993362 
	C84.236824,135.839767 84.110985,127.683945 84.270317,119.533371 
	C84.327324,116.617004 83.620010,115.234734 80.424088,115.454086 
	C77.541924,115.651917 74.827278,114.800728 74.973190,111.221092 
	C75.115616,107.727310 77.785675,107.179062 80.710480,107.205788 
	C86.034912,107.254456 91.360115,107.231842 96.684937,107.217163 
	C99.497330,107.209404 101.791702,108.095848 101.909889,111.256821 
	C102.031792,114.517113 99.627609,115.665703 96.907570,115.422340 
	C92.765862,115.051773 92.370522,117.188354 92.448219,120.517868 
	C92.626747,128.168167 92.509163,135.825546 92.497299,143.480026 
	C92.493660,145.826630 92.600334,148.240433 89.585472,149.614929 
z"/>
<path fill="#09080A" opacity="1.000000" stroke="none" 
	d="
M134.100555,107.552460 
	C140.472946,107.341667 146.465118,107.300369 152.456833,107.224777 
	C155.336777,107.188454 158.055603,107.602646 158.247849,111.168472 
	C158.444458,114.815689 155.732803,115.701782 152.872528,115.421364 
	C149.244293,115.065651 148.866470,116.837830 148.920975,119.786972 
	C149.068680,127.778175 148.931519,135.774185 148.989304,143.767715 
	C149.011871,146.890778 148.477112,149.797287 144.704742,149.739243 
	C141.210556,149.685455 140.758667,146.874496 140.777802,143.963699 
	C140.829239,136.136658 140.676590,128.306427 140.849136,120.482849 
	C140.921967,117.180962 140.602203,114.917747 136.418198,115.424301 
	C134.361603,115.673294 132.382919,114.992928 131.596298,112.710732 
	C130.818619,110.454521 131.769180,108.848434 134.100555,107.552460 
z"/>
<path fill="#080709" opacity="1.000000" stroke="none" 
	d="
M183.530182,149.903748 
	C166.981277,149.969574 168.941574,151.032928 168.873062,135.846054 
	C168.838623,128.210480 168.907852,120.574287 168.848160,112.939018 
	C168.824829,109.955681 169.505234,107.344193 172.975784,107.397789 
	C176.405533,107.450760 177.083069,110.107101 177.070007,113.053406 
	C177.033966,121.186974 177.218781,129.325455 176.981995,137.452271 
	C176.885330,140.770157 177.930466,142.062592 181.176758,141.624008 
	C181.828796,141.535919 182.503296,141.625061 183.166931,141.609970 
	C186.065567,141.544098 188.771942,142.128006 188.925079,145.595215 
	C189.061859,148.691650 186.829147,149.837036 183.530182,149.903748 
z"/>
<path fill="#080709" opacity="1.000000" stroke="none" 
	d="
M113.015846,129.998703 
	C113.017242,123.854225 113.038292,118.209023 113.011772,112.564034 
	C112.998421,109.721970 113.971375,107.451355 117.080421,107.396927 
	C120.229851,107.341766 121.224388,109.608604 121.221642,112.454903 
	C121.211212,123.247009 121.215752,134.039139 121.216072,144.831253 
	C121.216156,147.726227 120.034271,149.863876 116.929543,149.752365 
	C114.151833,149.652603 113.015778,147.626404 113.019760,144.942932 
	C113.026917,140.127991 113.018036,135.313019 113.015846,129.998703 
z"/>
</svg>